{"title":"The Block - S12E30 - Challenge Day","uid":16006975,"size":1217453174,"categoryP":"video","categoryS":"tv_shows","magnet":"?xt=urn:btih:dc47c8110a501207ad6220f637cdb651625ace5b&amp;dn=The+Block+-+S12E30+-+Challenge+Day&amp;tr=udp%3A%2F%2Ftracker.leechers-paradise.org%3A6969&amp;tr=udp%3A%2F%2Fzer0day.ch%3A1337&amp;tr=udp%3A%2F%2Fopen.demonii.com%3A1337&amp;tr=udp%3A%2F%2Ftracker.coppersurfer.tk%3A6969&amp;tr=udp%3A%2F%2Fexodus.desync.com%3A6969","seeders":9,"leechers":2,"uploader":"Bullrout","files":1,"time":1476194154,"description":"The Block - S12E30 - Challenge Day\r\n\r\nThere's a chance for one team to win $5000 cash. With the help of a craftsman, each team must build a dining table for their terrace, in a theme allocated to them. Block All Stars Dan and Dani are guest judges.\r\n\r\n\r\nComplete name                            : The Block - S12E30 - Challenge Day.mkv\r\nFormat                                   : Matroska\r\nFormat version                           : Version 4 / Version 2\r\nFile size                                : 1.13 GiB\r\nDuration                                 : 49 min 20 s\r\nOverall bit rate mode                    : Variable\r\nOverall bit rate                         : 3 290 kb/s\r\nEncoded date                             : UTC 2016-10-11 11:32:17\r\nWriting application                      : mkvmerge v9.4.2 ('So High') 64bit\r\nWriting library                          : libebml v1.3.4 + libmatroska v1.4.5\r\n\r\nVideo\r\nID                                       : 2\r\nFormat                                   : AVC\r\nFormat/Info                              : Advanced Video Codec\r\nFormat profile                           :   \r\nFormat settings, CABAC                   : Yes\r\nFormat settings, ReFrames                : 3 frames\r\nCodec ID                                 : V_MPEG4/ISO/AVC\r\nDuration                                 : 49 min 20 s\r\nBit rate mode                            : Variable\r\nBit rate                                 : 2 904 kb/s\r\nMaximum bit rate                         : 3 000 kb/s\r\nWidth                                    : 1 280 pixels\r\nHeight                                   : 720 pixels\r\nDisplay aspect ratio                     : 16:9\r\nFrame rate mode                          : Constant\r\nFrame rate                               : 25.000 FPS\r\nStandard                                 : PAL\r\nColor space                              : YUV\r\nChroma subsampling                       : 4:2:0\r\nBit depth                                : 8 bits\r\nScan type                                : Progressive\r\nBits/(Pixel*Frame)                       : 0.126\r\nStream size                              : 1.00 GiB (88%)\r\nWriting library                          : x264 core 112\r\nDefault                                  : Yes\r\nForced                                   : No\r\nColor range                              : Limited\r\nColor primaries                          : BT.709\r\nTransfer characteristics                 : BT.709\r\nMatrix coefficients                      : BT.709\r\n\r\nAudio\r\nID                                       : 1\r\nFormat                                   : AC-3\r\nFormat/Info                              : Audio Coding 3\r\nMode extension                           : CM (complete main)\r\nFormat settings, Endianness              : Big\r\nCodec ID                                 : A_AC3\r\nDuration                                 : 49 min 20 s\r\nBit rate mode                            : Constant\r\nBit rate                                 : 384 kb/s\r\nChannel(s)                               : 6 channels\r\nChannel positions                        : Front: L C R, Side: L R, LFE\r\nSampling rate                            : 48.0 kHz\r\nFrame rate                               : 31.250 FPS (1536 spf)\r\nCompression mode                         : Lossy\r\nStream size                              : 136 MiB (12%)\r\nDefault                                  : Yes\r\nForced                                   : No","torrent":{"xt":"urn:btih:dc47c8110a501207ad6220f637cdb651625ace5b","amp;dn":"The+Block+-+S12E30+-+Challenge+Day","amp;tr":["udp%3A%2F%2Ftracker.leechers-paradise.org%3A6969","udp%3A%2F%2Fzer0day.ch%3A1337","udp%3A%2F%2Fopen.demonii.com%3A1337","udp%3A%2F%2Ftracker.coppersurfer.tk%3A6969","udp%3A%2F%2Fexodus.desync.com%3A6969"],"infoHash":"dc47c8110a501207ad6220f637cdb651625ace5b","infoHashBuffer":{"type":"Buffer","data":[220,71,200,17,10,80,18,7,173,98,32,246,55,205,182,81,98,90,206,91]},"announce":[],"urlList":[]}}